<?xml version='1.0' encoding='utf-8'?>
<svg xmlns="http://www.w3.org/2000/svg" width="100%" height="100%" viewBox="0 0 1170 780" version="1.1" style="fill-rule:evenodd;clip-rule:evenodd;stroke-linejoin:round;stroke-miterlimit:2;"> <rect id="Artboard1" x="0" y="0" width="1170" height="780" style="fill:none;"/> <clipPath id="_clip1"> <rect id="Artboard11" x="0" y="0" width="1170" height="780"/> </clipPath> <g clip-path="url(#_clip1)"> <g transform="matrix(3.45133,0,0,2.01031,-1470.27,-281.443)"> <rect x="426" y="140" width="339" height="388" style="fill:rgb(9,0,20);"/> </g> <g transform="matrix(17.3205,0,0,17.3205,-1609.63,-10764.8)"> <path d="M135.436,635.599L135.436,639.912L135.352,639.949C133.844,639.223 133.177,638.459 130.397,638.356C130.264,638.906 129.799,639.477 129.135,639.991C129.799,640.506 130.264,641.077 130.397,641.627C133.177,641.524 133.844,640.759 135.352,640.034L135.436,640.071L135.436,644.384L117.977,644.384L117.977,640.071L118.062,640.034C119.569,640.759 120.236,641.524 123.016,641.627C123.149,641.077 123.615,640.506 124.278,639.991C123.615,639.477 123.149,638.906 123.016,638.356C120.236,638.459 119.569,639.223 118.062,639.949L117.977,639.912L117.977,635.599L135.436,635.599ZM126.656,644.201C126.633,644.204 126.61,644.208 126.586,644.211L126.565,644.215L126.849,644.215L126.827,644.211C126.804,644.208 126.781,644.204 126.758,644.201L126.656,644.201ZM118.157,644.215L121.974,644.215C120.285,643.918 118.958,643.193 118.157,641.773L118.157,644.215ZM135.257,641.773L135.257,644.215L131.439,644.215C133.128,643.918 134.456,643.193 135.257,641.773ZM118.157,641.596L118.188,641.596C119.278,643.165 120.486,644.216 124.143,644.215C124.856,644.214 125.557,644.178 126.216,644.104C124.328,643.725 122.973,642.972 122.977,641.934C122.978,641.868 122.983,641.8 122.995,641.733C120.229,641.646 119.859,640.993 118.157,640.25L118.157,641.596ZM135.257,641.596L135.257,640.25C133.554,640.993 133.185,641.646 130.419,641.733C130.43,641.8 130.436,641.868 130.436,641.934C130.441,642.972 129.086,643.725 127.197,644.104C127.856,644.178 128.558,644.214 129.27,644.215C132.927,644.216 134.136,643.165 135.225,641.596L135.257,641.596ZM126.707,641.276C125.713,641.623 124.648,641.811 123.679,641.743C123.502,641.743 123.333,641.741 123.172,641.737C123.162,641.804 123.157,641.869 123.157,641.934C123.17,643.067 124.685,643.747 126.707,644.041C128.728,643.747 130.243,643.067 130.257,641.934C130.256,641.869 130.251,641.804 130.241,641.737C130.081,641.741 129.912,641.743 129.735,641.743C128.766,641.811 127.7,641.623 126.707,641.276ZM124.348,640.045C123.74,640.546 123.314,641.1 123.192,641.632C123.348,641.636 123.51,641.638 123.679,641.638C124.622,641.761 125.672,641.596 126.651,641.257C125.789,640.95 124.984,640.524 124.348,640.045ZM129.065,640.045C128.43,640.524 127.625,640.95 126.762,641.257C127.741,641.596 128.791,641.761 129.735,641.638C129.903,641.638 130.065,641.636 130.221,641.632C130.099,641.1 129.674,640.546 129.065,640.045ZM126.707,638.746C125.844,639.052 125.039,639.493 124.415,639.991C125.039,640.49 125.844,640.931 126.707,641.237C127.569,640.931 128.374,640.49 128.999,639.991C128.374,639.493 127.569,639.052 126.707,638.746ZM126.651,638.726C125.672,638.386 124.622,638.221 123.679,638.344C123.51,638.344 123.348,638.346 123.192,638.35C123.314,638.883 123.74,639.437 124.348,639.938C124.984,639.459 125.789,639.033 126.651,638.726ZM130.221,638.35C130.065,638.346 129.903,638.344 129.735,638.344C128.791,638.221 127.741,638.386 126.762,638.726C127.625,639.033 128.43,639.459 129.065,639.938C129.674,639.437 130.099,638.883 130.221,638.35ZM126.216,635.878C125.557,635.805 124.856,635.769 124.143,635.768C120.486,635.767 119.278,636.817 118.188,638.387L118.157,638.387L118.157,639.733C119.859,638.989 120.229,638.337 122.995,638.25C122.983,638.182 122.978,638.115 122.977,638.049C122.973,637.01 124.328,636.258 126.216,635.878ZM135.257,638.387L135.225,638.387C134.136,636.817 132.927,635.767 129.27,635.768C128.558,635.769 127.856,635.805 127.197,635.878C129.086,636.258 130.441,637.01 130.436,638.049C130.436,638.115 130.43,638.182 130.419,638.25C133.185,638.337 133.554,638.989 135.257,639.733L135.257,638.387ZM126.707,635.941C124.685,636.236 123.17,636.916 123.157,638.049C123.157,638.114 123.162,638.179 123.172,638.245C123.333,638.242 123.502,638.24 123.679,638.24C124.648,638.171 125.713,638.36 126.707,638.707C127.7,638.36 128.766,638.171 129.735,638.24C129.912,638.24 130.081,638.242 130.241,638.245C130.251,638.179 130.256,638.114 130.257,638.049C130.243,636.916 128.728,636.236 126.707,635.941ZM118.157,635.768L121.974,635.768C120.285,636.065 118.958,636.79 118.157,638.21L118.157,635.768ZM131.439,635.768C133.129,636.065 134.456,636.79 135.257,638.21L135.257,635.768L131.439,635.768ZM126.586,635.771C126.61,635.775 126.633,635.778 126.656,635.782L126.758,635.782C126.781,635.778 126.804,635.775 126.827,635.771L126.849,635.768L126.565,635.768L126.586,635.771Z" style="fill:url(#_Linear2);"/> </g> <g transform="matrix(2.28948,0,0,2.28948,-23177.8,-20911)"> <text x="10262.8px" y="9358.51px" style="font-family:'Goldman-Regular', 'Goldman';font-size:50px;fill:white;">F<tspan x="10299.5px 10338.3px 10373.5px 10412.3px 10454.2px " y="9358.51px 9358.51px 9358.51px 9358.51px 9358.51px ">UTURE</tspan></text> </g> <g transform="matrix(0.99365,0,0,0.99365,-9810.69,-8741.46)"> <text x="10262.8px" y="9358.51px" style="font-family:'Montserrat-Medium', 'Montserrat';font-weight:500;font-size:29.95px;fill:white;">F<tspan x="10305.7px 10353px 10394.2px 10441.8px 10487.5px 10520.8px 10563px 10604.6px 10637.8px " y="9358.51px 9358.51px 9358.51px 9358.51px 9358.51px 9358.51px 9358.51px 9358.51px 9358.51px ">UTURISTIC</tspan></text> </g> </g> <defs> <linearGradient id="_Linear2" x1="0" y1="0" x2="1" y2="0" gradientUnits="userSpaceOnUse" gradientTransform="matrix(17,0,0,17,118.127,639.648)"><stop offset="0" style="stop-color:rgb(13,172,255);stop-opacity:1"/><stop offset="0.17" style="stop-color:rgb(194,194,194);stop-opacity:1"/><stop offset="0.39" style="stop-color:rgb(93,42,206);stop-opacity:1"/><stop offset="0.53" style="stop-color:rgb(34,0,110);stop-opacity:1"/><stop offset="0.65" style="stop-color:rgb(255,118,11);stop-opacity:1"/><stop offset="0.86" style="stop-color:rgb(211,211,211);stop-opacity:1"/><stop offset="1" style="stop-color:rgb(255,56,92);stop-opacity:1"/></linearGradient> </defs> </svg>